<?xml version="1.0" encoding="UTF-8" standalone="no"?>
<!-- Created with Inkscape (http://www.inkscape.org/) -->

<svg
   xmlns:dc="http://purl.org/dc/elements/1.1/"
   xmlns:cc="http://creativecommons.org/ns#"
   xmlns:rdf="http://www.w3.org/1999/02/22-rdf-syntax-ns#"
   xmlns:svg="http://www.w3.org/2000/svg"
   xmlns="http://www.w3.org/2000/svg"
   xmlns:sodipodi="http://sodipodi.sourceforge.net/DTD/sodipodi-0.dtd"
   xmlns:inkscape="http://www.inkscape.org/namespaces/inkscape"
   width="2086.606"
   height="603.24573"
   id="svg2"
   version="1.1"
   inkscape:version="0.48.1 "
   sodipodi:docname="tvpublicaargentina.svg">
  <title
     id="title3004">Logo TV Publica Argentina</title>
  <defs
     id="defs4" />
  <sodipodi:namedview
     id="base"
     pagecolor="#ffffff"
     bordercolor="#666666"
     borderopacity="1.0"
     inkscape:pageopacity="0.0"
     inkscape:pageshadow="2"
     inkscape:zoom="0.25"
     inkscape:cx="770.31993"
     inkscape:cy="629.10514"
     inkscape:document-units="px"
     inkscape:current-layer="layer5"
     showgrid="false"
     inkscape:window-width="1024"
     inkscape:window-height="712"
     inkscape:window-x="-4"
     inkscape:window-y="-4"
     inkscape:window-maximized="1"
     fit-margin-top="0"
     fit-margin-left="0"
     fit-margin-right="0"
     fit-margin-bottom="0" />
  <metadata
     id="metadata7">
    <rdf:RDF>
      <cc:Work
         rdf:about="">
        <dc:format>image/svg+xml</dc:format>
        <dc:type
           rdf:resource="http://purl.org/dc/dcmitype/StillImage" />
        <dc:title>Logo TV Publica Argentina</dc:title>
        <dc:date>2011-05-13</dc:date>
        <dc:creator>
          <cc:Agent>
            <dc:title>http://es.wikipedia.org/wiki/Usuario:Alakasam</dc:title>
          </cc:Agent>
        </dc:creator>
        <dc:rights>
          <cc:Agent>
            <dc:title>CC-ShareAlike</dc:title>
          </cc:Agent>
        </dc:rights>
        <cc:license
           rdf:resource="http://creativecommons.org/licenses/by-sa/3.0/" />
      </cc:Work>
      <cc:License
         rdf:about="http://creativecommons.org/licenses/by-sa/3.0/">
        <cc:permits
           rdf:resource="http://creativecommons.org/ns#Reproduction" />
        <cc:permits
           rdf:resource="http://creativecommons.org/ns#Distribution" />
        <cc:requires
           rdf:resource="http://creativecommons.org/ns#Notice" />
        <cc:requires
           rdf:resource="http://creativecommons.org/ns#Attribution" />
        <cc:permits
           rdf:resource="http://creativecommons.org/ns#DerivativeWorks" />
        <cc:requires
           rdf:resource="http://creativecommons.org/ns#ShareAlike" />
      </cc:License>
    </rdf:RDF>
  </metadata>
  <g
     inkscape:groupmode="layer"
     id="layer2"
     inkscape:label="celeste"
     style="display:inline"
     transform="translate(882.81234,-250.8061)">
    <path
       sodipodi:type="arc"
       style="fill:#75aadb;fill-opacity:1;stroke:none"
       id="path3022"
       sodipodi:cx="101.11627"
       sodipodi:cy="609.00623"
       sodipodi:rx="12.020815"
       sodipodi:ry="11.667262"
       d="m 113.13709,609.00623 c 0,6.44365 -5.38191,11.66726 -12.02082,11.66726 -6.638911,0 -12.020813,-5.22361 -12.020813,-11.66726 0,-6.44366 5.381902,-11.66727 12.020813,-11.66727 6.63891,0 12.02082,5.22361 12.02082,11.66727 z"
       transform="matrix(25.211835,0,0,25.852069,-3129.0723,-15191.642)" />
  </g>
  <g
     style="display:inline"
     inkscape:label="anillo1"
     id="g3806"
     inkscape:groupmode="layer"
     transform="translate(882.81234,-250.8061)">
    <path
       transform="matrix(22.536458,0,0,23.108753,-2858.5479,-13520.945)"
       d="m 113.13709,609.00623 c 0,6.44365 -5.38191,11.66726 -12.02082,11.66726 -6.638911,0 -12.020813,-5.22361 -12.020813,-11.66726 0,-6.44366 5.381902,-11.66727 12.020813,-11.66727 6.63891,0 12.02082,5.22361 12.02082,11.66727 z"
       sodipodi:ry="11.667262"
       sodipodi:rx="12.020815"
       sodipodi:cy="609.00623"
       sodipodi:cx="101.11627"
       id="path3808"
       style="fill:none;stroke:#ffffff;stroke-width:0.78875375;stroke-linejoin:round;stroke-miterlimit:4;stroke-opacity:1;stroke-dasharray:none"
       sodipodi:type="arc" />
  </g>
  <g
     inkscape:groupmode="layer"
     id="g3810"
     inkscape:label="anillo2"
     style="display:inline"
     transform="translate(882.81234,-250.8061)">
    <path
       sodipodi:type="arc"
       style="fill:none;stroke:#ffffff;stroke-width:1.08540225;stroke-linejoin:round;stroke-miterlimit:4;stroke-opacity:1;stroke-dasharray:none"
       id="path3812"
       sodipodi:cx="101.11627"
       sodipodi:cy="609.00623"
       sodipodi:rx="12.020815"
       sodipodi:ry="11.667262"
       d="m 113.13709,609.00623 c 0,6.44365 -5.38191,11.66726 -12.02082,11.66726 -6.638911,0 -12.020813,-5.22361 -12.020813,-11.66726 0,-6.44366 5.381902,-11.66727 12.020813,-11.66727 6.63891,0 12.02082,5.22361 12.02082,11.66727 z"
       transform="matrix(16.377076,0,0,16.79296,-2235.7343,-9674.5869)" />
  </g>
  <g
     style="display:inline"
     inkscape:label="blanco"
     id="g3814"
     inkscape:groupmode="layer"
     transform="translate(882.81234,-250.8061)">
    <path
       transform="matrix(13.880855,0,0,14.233352,-1983.3259,-8115.7694)"
       d="m 113.13709,609.00623 c 0,6.44365 -5.38191,11.66726 -12.02082,11.66726 -6.638911,0 -12.020813,-5.22361 -12.020813,-11.66726 0,-6.44366 5.381902,-11.66727 12.020813,-11.66727 6.63891,0 12.02082,5.22361 12.02082,11.66727 z"
       sodipodi:ry="11.667262"
       sodipodi:rx="12.020815"
       sodipodi:cy="609.00623"
       sodipodi:cx="101.11627"
       id="path3816"
       style="fill:#ffffff;fill-opacity:1;stroke:none"
       sodipodi:type="arc" />
  </g>
  <g
     inkscape:groupmode="layer"
     id="g3818"
     inkscape:label="sol"
     style="display:inline"
     transform="translate(882.81234,-250.8061)">
    <path
       sodipodi:type="arc"
       style="fill:#fcbf49;fill-opacity:1;stroke:none"
       id="path3820"
       sodipodi:cx="101.11627"
       sodipodi:cy="609.00623"
       sodipodi:rx="12.020815"
       sodipodi:ry="11.667262"
       d="m 113.13709,609.00623 c 0,6.44365 -5.38191,11.66726 -12.02082,11.66726 -6.638911,0 -12.020813,-5.22361 -12.020813,-11.66726 0,-6.44366 5.381902,-11.66727 12.020813,-11.66727 6.63891,0 12.02082,5.22361 12.02082,11.66727 z"
       transform="matrix(6.4308777,0,0,6.5941866,-1230.0121,-3463.4707)" />
  </g>
  <g
     inkscape:groupmode="layer"
     id="layer5"
     inkscape:label="tvpublica"
     style="display:inline"
     transform="translate(882.81234,-250.8061)">
    <g
       style="font-size:32px;font-style:normal;font-variant:normal;font-weight:bold;font-stretch:normal;text-align:start;line-height:50%;letter-spacing:0px;word-spacing:0px;writing-mode:lr-tb;text-anchor:start;fill:#000000;fill-opacity:1;stroke:none;font-family:Lucida Sans Unicode;-inkscape-font-specification:Lucida Sans Unicode Bold"
       id="text3826"
       transform="matrix(10,0,0,10,-1412.7689,-4918.7327)">
      <path
         d="m 131.76048,558.62415 0,-20.26856 -8.04297,0 0,-3.03027 19.99121,0 0,3.03027 -8.04296,0 0,20.26856 z"
         id="path3831"
         inkscape:connector-curvature="0"
         style="fill:#8a8c8e;fill-opacity:1;stroke:#8a8c8e;stroke-opacity:1" />
      <path
         d="m 148.96654,558.62415 -8.66016,-23.29883 3.80078,0 6.7666,18.56836 6.53028,-18.56836 3.41308,0 -8.32226,23.29883 z"
         id="path3833"
         inkscape:connector-curvature="0"
         style="fill:#8a8c8e;fill-opacity:1;stroke:#8a8c8e;stroke-opacity:1" />
      <path
         d="m 165.8679,558.62415 0,-23.29883 6.51758,0 c 1.80924,2e-5 3.22281,0.15367 4.24073,0.46094 1.01788,0.30731 1.85236,0.85158 2.50341,1.63281 0.86066,1.03453 1.291,2.42222 1.29102,4.16309 -2e-5,2.50392 -0.85125,4.46892 -2.55371,5.89502 -1.70249,1.42611 -4.05047,2.13917 -7.04395,2.13916 l -1.08105,0 0,9.00781 z m 3.87403,-12.06934 0.95898,0 c 1.82096,2e-5 3.21728,-0.40949 4.18897,-1.22851 0.97166,-0.819 1.4575,-1.99022 1.45752,-3.51367 -2e-5,-1.24478 -0.37437,-2.13215 -1.12305,-2.66211 -0.74871,-0.52993 -2.03191,-0.79491 -3.84961,-0.79493 l -1.63281,0 z"
         id="path3835"
         inkscape:connector-curvature="0"
         style="fill:#8a8c8e;fill-opacity:1;stroke:#8a8c8e;stroke-opacity:1" />
      <path
         d="m 192.11205,558.62415 0,-3.125 c -1.24871,2.33854 -3.07977,3.50781 -5.49317,3.50781 -1.55665,0 -2.7946,-0.48958 -3.71387,-1.46875 -0.91927,-0.97916 -1.37891,-2.28385 -1.3789,-3.91406 l 0,-12.2627 3.70605,0 0,11.28223 c 0,1.19076 0.15478,2.01075 0.46436,2.45996 0.30956,0.44922 0.82665,0.67383 1.55127,0.67383 1.70832,0 3.32974,-1.13639 4.86426,-3.40918 l 0,-11.00684 3.70605,0 0,17.2627 z m -6.05567,-19.65527 3.85156,-5.54297 4.02051,0 -5.10742,5.54297 z"
         id="path3837"
         inkscape:connector-curvature="0"
         style="fill:#8a8c8e;fill-opacity:1;stroke:#8a8c8e;stroke-opacity:1" />
      <path
         d="m 197.6472,558.80774 0,-24.99902 3.70606,0 0,10.67871 c 0.86327,-2.32876 2.6022,-3.49315 5.21679,-3.49316 2.11718,10e-6 3.7788,0.76645 4.98487,2.29931 1.20603,1.53289 1.80906,3.59751 1.80908,6.19385 -2e-5,2.82292 -0.67857,5.11524 -2.03565,6.87695 -1.35711,1.76172 -3.1574,2.64258 -5.40088,2.64258 -2.08464,0 -3.65235,-0.75586 -4.70312,-2.26758 l -0.28906,2.06836 z m 3.70606,-4.58789 c 1.41145,1.26303 2.77766,1.89454 4.09863,1.89453 1.25975,10e-6 2.24266,-0.5415 2.94873,-1.62451 0.70604,-1.083 1.05907,-2.64827 1.05908,-4.6958 -1e-5,-3.69335 -1.17254,-5.54002 -3.51758,-5.54004 -1.57292,2e-5 -3.10254,0.84735 -4.58886,2.54199 z"
         id="path3839"
         inkscape:connector-curvature="0"
         style="fill:#8a8c8e;fill-opacity:1;stroke:#8a8c8e;stroke-opacity:1" />
      <path
         d="m 215.8347,558.62415 0,-24.81543 3.70606,0 0,24.81543 z"
         id="path3841"
         inkscape:connector-curvature="0"
         style="fill:#8a8c8e;fill-opacity:1;stroke:#8a8c8e;stroke-opacity:1" />
      <path
         d="m 223.1472,558.62415 0,-17.2627 3.70606,0 0,17.2627 z m 0,-19.65527 0,-3.64356 3.70606,0 0,3.64356 z"
         id="path3843"
         inkscape:connector-curvature="0"
         style="fill:#8a8c8e;fill-opacity:1;stroke:#8a8c8e;stroke-opacity:1" />
      <path
         d="m 242.69896,558.03333 c -2.13673,0.64909 -3.93654,0.97363 -5.39941,0.97363 -2.35809,0 -4.30714,-0.86556 -5.84717,-2.59668 -1.54004,-1.73111 -2.31006,-3.90071 -2.31006,-6.50879 0,-2.78384 0.76481,-4.96434 2.29443,-6.5415 1.52962,-1.57713 3.65738,-2.36571 6.3833,-2.36572 1.3151,10e-6 2.8802,0.20216 4.69532,0.60644 l 0,3.08203 c -1.97918,-0.49998 -3.48276,-0.74998 -4.51075,-0.75 -1.43685,2e-5 -2.59164,0.54413 -3.46435,1.63233 -0.87273,1.08823 -1.30909,2.5643 -1.30908,4.42822 -1e-5,1.80274 0.45035,3.24561 1.35107,4.32861 0.90071,1.08301 2.07209,1.62452 3.51416,1.62451 1.32551,10e-6 2.85969,-0.35253 4.60254,-1.05761 z"
         id="path3845"
         inkscape:connector-curvature="0"
         style="fill:#8a8c8e;fill-opacity:1;stroke:#8a8c8e;stroke-opacity:1" />
      <path
         d="m 255.614,556.50989 c -1.57228,1.66472 -3.2448,2.49707 -5.01758,2.49707 -1.48112,0 -2.70785,-0.46159 -3.68018,-1.38476 -0.97233,-0.92318 -1.45849,-2.08757 -1.45849,-3.49317 0,-1.92382 0.80338,-3.39892 2.41015,-4.42529 1.60677,-1.02636 3.87467,-1.53954 6.80372,-1.53955 l 0.36132,0 0,-1.69434 c -1e-5,-1.72199 -0.89161,-2.58299 -2.6748,-2.58301 -1.50131,2e-5 -3.32162,0.49025 -5.46094,1.47071 l 0,-3.01172 c 2.21224,-0.90103 4.24186,-1.35155 6.08887,-1.35156 1.9453,10e-6 3.39029,0.45314 4.33496,1.35937 0.94465,0.90627 1.41698,2.27834 1.41699,4.11621 l 0,7.53711 c -1e-5,1.51758 0.41633,2.27637 1.24903,2.27637 0.11391,0 0.40721,-0.0205 0.87988,-0.0615 l 0.26074,2.16015 c -0.85744,0.41667 -1.72788,0.625 -2.61133,0.625 -1.59702,0 -2.56446,-0.83235 -2.90234,-2.49707 z m -0.58106,-2.08887 0,-3.86621 -0.65332,-0.0195 c -1.58399,10e-6 -2.84945,0.28744 -3.79638,0.86231 -0.94695,0.57487 -1.42042,1.32194 -1.42041,2.24121 -1e-5,0.64909 0.22167,1.19076 0.66504,1.625 0.44335,0.43425 0.98567,0.65137 1.62695,0.65136 1.16926,10e-6 2.36197,-0.49804 3.57812,-1.49414 z"
         id="path3847"
         inkscape:connector-curvature="0"
         style="fill:#8a8c8e;fill-opacity:1;stroke:#8a8c8e;stroke-opacity:1" />
    </g>
  </g>
</svg>
