<svg version="1.1" xmlns="http://www.w3.org/2000/svg" xmlns:xlink="http://www.w3.org/1999/xlink" width="774.91889" height="268.38173" viewBox="0,0,774.91889,268.38173"><g transform="translate(147.45944,-45.80914)"><g data-paper-data="{&quot;isPaintingLayer&quot;:true}" fill-rule="nonzero" stroke-linecap="butt" stroke-linejoin="miter" stroke-dasharray="" stroke-dashoffset="0" style="mix-blend-mode: normal"><g><g><g stroke="#000000" stroke-width="0" stroke-miterlimit="4"><path d="M15.88999,234.22618c-10.62679,23.82202 -27.93742,51.23135 -44.79429,63.34667c-24.44288,17.56005 -42.30543,0.80666 -45.2772,-5.94622c-2.96913,-6.75285 3.24244,-11.34848 3.51308,-12.1604c0.2282,-0.69251 26.54969,-17.41143 50.52294,-39.23015c6.35216,-0.74826 12.7999,-1.65572 19.3325,-2.76217c5.67822,-0.9685 11.24233,-2.06167 16.70299,-3.24773z" fill="#524196"/><path d="M-64.99285,269.739c-12.96703,6.48753 -31.34432,2.70645 -35.12804,-8.91799c-2.71971,-8.34753 5.72862,-12.79193 21.33313,-18.84692c16.48011,1.16749 34.90251,0.80134 54.41014,-1.26565c-12.93256,11.68813 -28.95626,23.20113 -40.61523,29.03058z" fill="#1a65b8"/><path d="M56.89259,222.72114c4.34622,33.29722 -6.23808,61.78917 -11.90305,72.69189c-7.02613,13.51098 -29.18446,24.8595 -51.61611,15.1322c-21.37998,-9.27621 -5.41105,-20.28769 12.03306,-49.64464c0.1778,-0.25207 1.05602,-1.52303 5.39166,-7.78236c0.41391,-0.62618 0.8093,-1.24182 1.20199,-1.85207c2.48354,-4.04375 5.5376,-10.39856 8.52794,-18.05886c12.90602,-2.96648 25.09296,-6.51403 36.3645,-10.48616z" fill="#ef2e32"/><path d="M102.27594,268.92705c-7.29412,28.91914 -48.09774,25.67138 -41.61289,-7.02084c2.82054,-14.23538 1.80164,-28.67501 -0.24678,-40.44804c6.43974,-2.35088 12.53984,-4.86363 18.28439,-7.4825c13.47648,12.92195 28.87935,33.93401 23.57524,54.95139z" fill="#fbbf18"/><path d="M-0.81568,237.47658c-6.53261,1.10648 -12.98031,2.01391 -19.3325,2.76217c4.37275,-3.98003 8.6686,-8.12994 12.71235,-12.38331c26.21272,-27.5606 24.58883,-51.07216 24.58883,-59.71422c0,-8.65264 -7.02349,-20.00115 -7.02349,-20.00115c0,0 0,0 9.72991,10.27122c9.72465,10.26325 10.26593,23.2356 5.67293,47.55908c-1.42752,7.54619 -4.85831,17.53619 -9.64239,28.25846c-5.46066,1.18342 -11.02477,2.27658 -16.70564,3.24773z" fill="#6152a2"/><path d="M-78.78775,241.97142c6.10277,-2.36416 13.30403,-4.98039 21.36231,-8.16973c28.64318,-11.35116 38.64379,-27.83391 54.3146,-45.4019c15.67616,-17.56005 12.16043,-35.94263 12.16043,-35.94263c0,0 7.38167,10.31897 4.32235,31.88827c-3.05935,21.57459 -19.99848,39.45568 -33.50682,52.42803c-1.36648,1.31076 -2.78868,2.62419 -4.24274,3.93495c-19.5076,2.06699 -37.93265,2.43314 -54.41014,1.263z" fill="#3879cc"/><path d="M-40.40137,141.37929c0,0 17.2947,-0.26532 30.26705,2.70378c12.96703,2.97709 19.72519,7.84072 16.48275,19.45984c-3.24244,11.61648 -9.72726,22.42365 -15.1322,27.83127c-5.40494,5.4023 -5.40494,5.40226 -5.40494,5.40226c0,0 3.51041,-25.66874 -11.35116,-40.5303c-14.86421,-14.86685 -14.86156,-14.86685 -14.86156,-14.86685z" fill="#2fb56f"/><path d="M56.89259,222.72114c-11.27154,3.97477 -23.46113,7.5223 -36.3645,10.48881c3.76779,-9.65032 7.44007,-21.37028 9.72991,-33.19635c0.45373,-4.42315 0.76948,-8.73757 1.22853,-13.08115c-0.07961,-14.93054 -5.4023,-24.11388 -5.74987,-24.67108c-5.1502,-7.785 -11.6218,-12.50272 -11.6218,-12.50272c0,0 21.14475,5.13163 36.81823,48.3737c3.02749,8.35285 4.91406,16.60748 5.95947,24.58883z" fill="#f74d4d"/><path d="M78.7007,213.97828c-5.74191,2.6189 -11.84465,5.12898 -18.28439,7.48254c-2.6587,-15.2569 -7.05002,-26.02963 -7.05002,-26.02963c0,0 0,0 12.16043,7.83276c3.31938,2.13861 8.11401,5.85864 13.17398,10.71434z" fill="#ffc965"/></g><g fill="none" stroke="none" stroke-width="1" stroke-miterlimit="10" font-family="sans-serif" font-weight="normal" font-size="12" text-anchor="start"/></g><path d="M-41.92462,153.12737c9.92315,9.74441 14.88442,23.73538 14.88442,41.9726v15.14679c-8.59962,8.51402 -18.88011,16.16968 -34.49277,22.35687c-2.95736,1.1705 -5.75914,2.24518 -8.48326,3.28181c2.00607,-3.27299 3.01567,-7.21022 3.01567,-11.82067v-13.41042c-26.28291,0 -39.42464,6.7944 -39.42464,20.3829c0,4.91689 1.4744,8.76113 4.42443,11.53252c1.81954,1.65408 4.06652,2.79689 6.73619,3.43079c-8.60516,4.2197 -11.49078,8.38349 -9.43662,14.68866c2.40438,7.38648 9.26587,12.93323 18.25749,13.65069c-5.29043,1.618 -11.1449,1.2178 -17.56783,1.2178c-12.87355,0 -23.33263,-3.88908 -31.37842,-11.66673c-8.04579,-7.86702 -12.06948,-17.38739 -12.06948,-28.56211c0,-16.27042 6.79443,-28.74216 20.38296,-37.41377c13.67781,-8.67161 33.25642,-13.00652 58.73492,-13.00652v-1.60952c0,-10.90655 -8.22508,-16.35976 -24.67437,-16.35976c-13.40978,0 -25.83538,3.30752 -37.27841,9.923l-7.77771,-26.28273c14.57183,-8.04585 32.00488,-12.06942 52.29825,-12.06942c19.30986,0 33.92595,4.87287 43.84919,14.61725z" fill="#78777c" stroke="none" stroke-width="18.4234" stroke-miterlimit="10"/><path d="M170.0341,143.97011v25.03988l-65.38256,74.30307c-5.45485,-9.86451 -10.7061,-19.76496 -19.52879,-29.03514l31.35137,-37.10182h-64.34436c-10.46151,-22.15204 -18.07023,-30.36281 -23.56521,-33.20599z" fill="#78777c" stroke="none" stroke-width="18.576" stroke-miterlimit="10"/><path d="M169.93886,243.85823v33.2048h-68.41002c7.60015,-5.9682 6.13785,-23.03403 3.18709,-33.2048z" fill="#78777c" stroke="none" stroke-width="18.576" stroke-miterlimit="10"/></g><path d="M284.66313,226.75854l16.63922,27.32248l-1.61554,1.93411c-0.79924,0.95856 -19.98699,23.4428 -55.1142,23.4428c-41.02917,0 -70.80629,-28.55403 -70.80629,-67.89367c0,-33.73921 24.57198,-67.89367 71.53725,-67.89367c19.54326,0 48.62066,8.31959 48.62066,31.24476v17.98457h-34.33934v-10.26796c0,-3.60944 -7.52892,-6.12663 -14.28128,-6.12663c-19.29296,0 -33.29551,14.64251 -33.29551,34.81721c0,23.72155 17.70302,34.33369 35.24385,34.33369c19.46361,0 34.10044,-15.36782 34.2455,-15.52425z" fill="#9a0a5e" stroke="none" stroke-width="1" stroke-miterlimit="10"/><path d="M575.57352,250.85554l-1.61557,1.93697c-0.79924,0.95856 -19.98699,23.4428 -55.11706,23.4428c-41.02917,0 -70.80626,-28.55403 -70.80626,-67.89367c0,-33.73921 24.56919,-67.89367 71.53446,-67.89367c19.54329,0 48.62063,8.31677 48.62063,31.24476v17.98457h-34.34223v-10.27082c0,-3.60659 -7.52318,-6.12378 -14.27843,-6.12378c-19.29296,0 -33.29269,14.64251 -33.29269,34.81721c0,23.71869 17.70302,34.33369 35.24385,34.33369c19.3726,0 34.10327,-15.37348 34.24836,-15.52708l3.16575,-3.35631z" fill="#9a0a5e" stroke="none" stroke-width="1" stroke-miterlimit="10"/><path d="M307.67074,229.22739v0v-0.00286z" fill="#9a0a5e" stroke="none" stroke-width="1" stroke-miterlimit="10"/><path d="M368.64708,242.68953v12.12246v11.79534v8.67799h-5.67157h-18.16948c-20.50747,0 -37.13532,-16.62499 -37.13532,-37.13246v-111.18979h-19.17352v-30.88636h19.17352h41.81422v30.88922v74.38159v27.85434c0,7.44925 6.03848,13.48773 13.48773,13.48773z" fill="#9a0a5e" stroke="none" stroke-width="1" stroke-miterlimit="10"/><path d="M453.11741,244.03205v32.20046h-77.04667v-32.20043h16.02769v-66.46302h-18.37425v-30.67302h18.37425h42.22664v30.67302v66.46302z" fill="#9a0a5e" stroke="none" stroke-width="1" stroke-miterlimit="10"/><path d="M430.41412,116.57564l-24.33305,-9.75313l-32.35687,35.16704l13.39103,-42.77561l-37.63024,-15.0891l45.35253,-9.5853l8.99089,-28.7304l9.33786,24.85646l32.49624,-6.869l-24.90476,27.06932z" fill="#9a0a5e" stroke="none" stroke-width="1" stroke-miterlimit="10"/><g fill="#9a0a5e" stroke="none" stroke-width="1" stroke-miterlimit="10"><path d="M582.10977,275.28529v-36.26212h39.88007v36.26212z"/><path d="M627.45944,96.07668l-5.47249,124.66615h-39.87722l-6.53623,-124.66612z"/></g></g></g></svg>